name C:\Users\u0101727\Documents\MyRepositories\upper-imu-dc\Results\main_tracking\Case_47\kinematics_filtered.mot
datacolumns 10
datarows 33
range 5.38000000 5.70000000
endheader 
time	clav_prot	clav_elev	scapula_abduction	scapula_elevation	scapula_upward_rot	scapula_winging	plane_elv	shoulder_elv	axial_rot	
          5.38000000	        -26.41515184	          3.89702537	          2.17644997	         -4.38542312	         45.98238518	         -4.35608086	         67.44011630	         54.40781214	         -9.10344147	
          5.39000000	        -26.33889198	          3.78282279	          1.98619360	         -4.41778148	         45.54513436	         -4.25634976	         67.50161568	         54.00991899	         -9.27027701	
          5.40000000	        -26.26498458	          3.66907167	          1.78813365	         -4.44839432	         45.10261827	         -4.15493620	         67.55482527	         53.61386714	         -9.44501328	
          5.41000000	        -26.19347264	          3.55565983	          1.58215597	         -4.47728926	         44.65469159	         -4.05174182	         67.59965301	         53.22009334	         -9.62669512	
          5.42000000	        -26.12441726	          3.44243765	          1.36814983	         -4.50452373	         44.20123640	         -3.94666265	         67.63607625	         52.82893368	         -9.81404367	
          5.43000000	        -26.05789986	          3.32922767	          1.14601979	         -4.53018136	         43.74218538	         -3.83959582	         67.66413256	         52.44061399	        -10.00544197	
          5.44000000	        -25.99402255	          3.21583497	          0.91569993	         -4.55436800	         43.27754411	         -3.73044647	         67.68390832	         52.05524350	        -10.19893328	
          5.45000000	        -25.93290653	          3.10205755	          0.67716900	         -4.57720753	         42.80741106	         -3.61913474	         67.69552645	         51.67281234	        -10.39223656	
          5.46000000	        -25.87468881	          2.98769659	          0.43046503	         -4.59883743	         42.33199320	         -3.50560207	         67.69913431	         51.29319297	        -10.58278284	
          5.47000000	        -25.81951761	          2.87256576	          0.17569760	         -4.61940439	         41.85161596	         -3.38981665	         67.69489283	         50.91614585	        -10.76777528	
          5.48000000	        -25.76754683	          2.75649949	         -0.08694385	         -4.63905985	         41.36672593	         -3.27177747	         67.68296758	         50.54132925	        -10.94427355	
          5.49000000	        -25.71893008	          2.63935946	         -0.35718696	         -4.65795566	         40.87788556	         -3.15151648	         67.66352224	         50.16831326	        -11.10930011	
          5.50000000	        -25.67381476	          2.52103919	         -0.63467958	         -4.67624002	         40.38575955	         -3.02909878	         67.63671439	         49.79659753	        -11.25996306	
          5.51000000	        -25.63233660	          2.40146661	         -0.91899924	         -4.69405354	         39.89109332	         -2.90462066	         67.60269368	         49.42563231	        -11.39358680	
          5.52000000	        -25.59461516	          2.28060471	         -1.20966874	         -4.71152550	         39.39468490	         -2.77820559	         67.56160195	         49.05484177	        -11.50783959	
          5.53000000	        -25.56075046	          2.15845087	         -1.50617690	         -4.72877011	         38.89735207	         -2.64999870	         67.51357483	         48.68364831	        -11.60084616	
          5.54000000	        -25.53082118	          2.03503518	         -1.80800278	         -4.74588277	         38.39989755	         -2.52016011	         67.45874404	         48.31149661	        -11.67127444	
          5.55000000	        -25.50488417	          1.91041827	         -2.11464101	         -4.76293650	         37.90307493	         -2.38885790	         67.39723927	         47.93787531	        -11.71838822	
          5.56000000	        -25.48297500	          1.78468863	         -2.42562523	         -4.77997891	         37.40755888	         -2.25626125	         67.32918827	         47.56233511	        -11.74206150	
          5.57000000	        -25.46510883	          1.65795936	         -2.74054596	         -4.79703017	         36.91392229	         -2.12253439	         67.25471348	         47.18450127	        -11.74275461	
          5.58000000	        -25.45128051	          1.53036407	         -3.05905913	         -4.81408289	         36.42262307	         -1.98783176	         67.17392383	         46.80407988	        -11.72145638	
          5.59000000	        -25.44146279	          1.40205161	         -3.38088215	         -4.83110416	         35.93400226	         -1.85229466	         67.08690089	         46.42085686	        -11.67959909	
          5.60000000	        -25.43560150	          1.27317979	         -3.70577527	         -4.84803998	         35.44829392	         -1.71604982	         66.99367941	         46.03469034	        -11.61895504	
          5.61000000	        -25.43360717	          1.14390849	         -4.03350847	         -4.86482182	         34.96564578	         -1.57920967	         66.89422341	         45.64549705	        -11.54152340	
          5.62000000	        -25.43534319	          1.01439307	         -4.36381604	         -4.88137432	         34.48614857	         -1.44187444	         66.78839982	         45.25323468	        -11.44941557	
          5.63000000	        -25.44061137	          0.88477905	         -4.69634386	         -4.89762306	         34.00987015	         -1.30413583	         66.67595259	         44.85788222	        -11.34474596	
          5.64000000	        -25.44913663	          0.75519917	         -5.03059555	         -4.91350118	         33.53689061	         -1.16608176	         66.55647999	         44.45942087	        -11.22953338	
          5.65000000	        -25.46055300	          0.62577335	         -5.36588473	         -4.92895368	         33.06733395	         -1.02780172	         66.42941799	         44.05781767	        -11.10561709	
          5.66000000	        -25.47439300	          0.49661166	         -5.70129986	         -4.94393907	         32.60139285	         -0.88939209	         66.29403173	         43.65301386	        -10.97458995	
          5.67000000	        -25.49008252	          0.36781984	         -6.03568647	         -4.95842807	         32.13934416	         -0.75096092	         66.14941652	         43.24491904	        -10.83775046	
          5.68000000	        -25.50694229	          0.23950622	         -6.36764918	         -4.97240018	         31.68155401	         -0.61263146	         65.99450853	         42.83341181	        -10.69607453	
          5.69000000	        -25.52419640	          0.11178869	         -6.69557343	         -4.98583880	         31.22847289	         -0.47454411	         65.82810476	         42.41834633	        -10.55020711	
          5.70000000	        -25.54098736	         -0.01519960	         -7.01766419	         -4.99872623	         30.78062224	         -0.33685666	         65.64889056	         41.99956404	        -10.40047304	
